<svg xmlns="http://www.w3.org/2000/svg" width="500" height="500" style="width:100%;height:100%;transform:translate3d(0,0,0);content-visibility:visible" viewBox="0 0 500 500"><defs><clipPath id="b"><path d="M0 0h500v500H0z"/></clipPath><filter id="d" width="300%" height="300%" x="-100%" y="-100%"><feGaussianBlur result="filter_result_0" stdDeviation="52.5 52.5"/></filter><mask id="c" mask-type="alpha"><use xmlns:ns1="http://www.w3.org/1999/xlink" ns1:href="#a"/></mask><g id="a" fill-opacity="0" stroke="#121331" stroke-linecap="round" stroke-linejoin="round" stroke-width="12" style="display:block"><path d="M306.765 306.333h-66.117c-25.709 0-46.549-20.84-46.549-46.549v-19.568c0-25.709 20.84-46.549 46.549-46.549h19.568c25.709 0 46.549 20.84 46.549 46.549v66.117z"/><path d="M306.765 306.228c75.735-1.228 73.6-60.708 73.6-60.708 0-73.693-56.24-128.933-129.933-128.933-73.693 0-133.433 59.74-133.433 133.433 0 73.693 59.74 133.432 133.433 133.432 31.641 0 60.709-11.013 83.581-29.415"/></g></defs><g clip-path="url(#b)"><g mask="url(#c)" style="display:block"><g filter="url(#d)" transform="rotate(-94 262.075 8.435) scale(2.4)"><path fill="#4BE1EC" d="M0-250c137.975 0 250 112.025 250 250S137.975 250 0 250-250 137.975-250 0-137.975-250 0-250z" class="design"/><path fill="#CB5EEE" d="M113.242-295.384c97.478 0 176.5 79.022 176.5 176.5s-79.022 176.5-176.5 176.5c-43.948 0-74.396-34.057-105.29-60.631-37.631-32.369-71.21-62.338-71.21-115.869 0-97.478 79.022-176.5 176.5-176.5z" class="design"/></g></g><path style="display:none"/></g></svg>